<?xml version="1.0" encoding="UTF-8" standalone="no"?>
<!-- Created with Inkscape (http://www.inkscape.org/) -->

<svg
   xmlns:dc="http://purl.org/dc/elements/1.1/"
   xmlns:cc="http://creativecommons.org/ns#"
   xmlns:rdf="http://www.w3.org/1999/02/22-rdf-syntax-ns#"
   xmlns:svg="http://www.w3.org/2000/svg"
   xmlns="http://www.w3.org/2000/svg"
   xmlns:sodipodi="http://sodipodi.sourceforge.net/DTD/sodipodi-0.dtd"
   xmlns:inkscape="http://www.inkscape.org/namespaces/inkscape"
   width="10.583333mm"
   height="10.583333mm"
   viewBox="0 0 10.583333 10.583333"
   version="1.1"
   id="svg8"
   inkscape:version="0.92.4 (33fec40, 2019-01-16)"
   sodipodi:docname="drawing.svg">
  <defs
     id="defs2" />
  <sodipodi:namedview
     id="base"
     pagecolor="#ffffff"
     bordercolor="#666666"
     borderopacity="1.0"
     inkscape:pageopacity="0.0"
     inkscape:pageshadow="2"
     inkscape:zoom="0.35"
     inkscape:cx="360.01857"
     inkscape:cy="189.40999"
     inkscape:document-units="mm"
     inkscape:current-layer="layer1"
     showgrid="false"
     inkscape:window-width="1366"
     inkscape:window-height="710"
     inkscape:window-x="0"
     inkscape:window-y="28"
     inkscape:window-maximized="1" />
  <metadata
     id="metadata5">
    <rdf:RDF>
      <cc:Work
         rdf:about="">
        <dc:format>image/svg+xml</dc:format>
        <dc:type
           rdf:resource="http://purl.org/dc/dcmitype/StillImage" />
        <dc:title></dc:title>
      </cc:Work>
    </rdf:RDF>
  </metadata>
  <g
     inkscape:label="Layer 1"
     inkscape:groupmode="layer"
     id="layer1"
     transform="translate(82.403723,-188.36473)">
    <g
       id="g509"
       transform="matrix(0.02314916,0,0,0.02793763,-83.038241,186.50436)">
      <g
         id="g435">
        <g
           id="XMLID_1_">
          <g
             id="g366">
            <path
               id="path330"
               d="m 484.59,422.37 v 9.89 c 0,7.26 -5.88,13.15 -13.15,13.15 H 40.55 c -7.26,0 -13.14,-5.88 -13.14,-13.15 v -9.89 c 0,-7.26 5.88,-13.15 13.14,-13.15 h 14.24 20.52 124.12 0.01 l 18.09,18.09 h 76.94 l 18.09,-18.09 h 124.13 20.52 14.23 c 7.26,0 13.15,5.88 13.15,13.15 z"
               inkscape:connector-curvature="0"
               style="fill:#526471" />
            <path
               id="path332"
               d="m 484.59,422.37 v 9.05 c 0,-7.27 -5.89,-13.15 -13.15,-13.15 H 312.56 l -18.09,18.09 H 217.53 L 199.44,418.27 H 40.55 c -7.26,0 -13.14,5.89 -13.14,13.15 v -9.05 c 0,-7.26 5.88,-13.15 13.14,-13.15 h 158.89 l 18.09,18.09 h 76.94 l 18.09,-18.09 h 158.88 c 7.26,0 13.15,5.88 13.15,13.15 z"
               inkscape:connector-curvature="0"
               style="opacity:0.2;fill:#ffffff" />
            <path
               id="path334"
               d="m 332.5,78.59 v 44.61 h -153 V 78.59 c 0,-6.62 5.37,-12 12,-12 h 129 c 6.63,0 12,5.38 12,12 z"
               inkscape:connector-curvature="0"
               style="fill:#ffc035" />
            <path
               id="path336"
               d="m 476.11,209.26 v 36.15 c 0,9.61 -7.92,17.75 -18.9,20.59 -2.71,0.72 -5.61,1.1 -8.62,1.1 -9.06,0 -17.11,-3.46 -22.11,-8.79 -3.4,-3.61 -5.4,-8.07 -5.4,-12.9 v -36.15 h 5.4 30.73 z"
               inkscape:connector-curvature="0"
               style="fill:#eceff0" />
            <path
               id="path338"
               d="m 379.84,123.2 h 47.58 c 16.45,0 29.78,13.33 29.79,29.78 v 0.01 32.61 L 407,123.46 h -74.5 v -0.26 z"
               inkscape:connector-curvature="0"
               style="fill:#303c44" />
            <path
               id="path340"
               d="m 117.25,123.2 h 62.25 v 0.26 H 99.38 L 54.79,185.6 v -32.61 -0.01 C 54.8,136.53 68.13,123.2 84.57,123.2 Z"
               inkscape:connector-curvature="0"
               style="fill:#303c44" />
            <polygon
               id="polygon342"
               points="311.03,209.26 256,209.26 200.97,209.26 145.95,209.26 90.92,209.26 85.52,209.26 35.89,209.26 54.79,185.6 99.38,123.46 179.5,123.46 332.5,123.46 407,123.46 457.21,185.6 476.11,209.26 457.21,209.26 426.48,209.26 421.08,209.26 366.05,209.26 "
               style="fill:#dd6475" />
            <path
               id="path344"
               d="m 90.92,209.26 v 36.15 c 0,4.83 -2.01,9.29 -5.4,12.9 -4.05,4.3 -10.07,7.39 -17.02,8.41 -1.65,0.25 -3.35,0.38 -5.09,0.38 -3.01,0 -5.91,-0.38 -8.62,-1.1 -10.97,-2.84 -18.9,-10.98 -18.9,-20.59 v -36.15 z"
               inkscape:connector-curvature="0"
               style="fill:#c9314b" />
            <path
               id="path346"
               d="m 145.95,209.26 v 36.15 c 0,11.98 -12.32,21.69 -27.52,21.69 -15.19,0 -27.51,-9.71 -27.51,-21.69 v -28.92 -7.23 z"
               inkscape:connector-curvature="0"
               style="fill:#eceff0" />
            <path
               id="path348"
               d="m 200.97,209.26 v 36.15 c 0,11.98 -12.31,21.69 -27.51,21.69 -15.19,0 -27.51,-9.71 -27.51,-21.69 v -36.15 z"
               inkscape:connector-curvature="0"
               style="fill:#c9314b" />
            <path
               id="path350"
               d="m 256,209.26 v 36.15 c 0,11.98 -12.32,21.69 -27.51,21.69 -15.2,0 -27.52,-9.71 -27.52,-21.69 v -36.15 z"
               inkscape:connector-curvature="0"
               style="fill:#eceff0" />
            <path
               id="path352"
               d="m 311.03,209.26 v 36.15 c 0,11.98 -12.32,21.69 -27.52,21.69 -15.19,0 -27.51,-9.71 -27.51,-21.69 v -36.15 z"
               inkscape:connector-curvature="0"
               style="fill:#c9314b" />
            <path
               id="path354"
               d="m 366.05,209.26 v 36.15 c 0,11.98 -12.31,21.69 -27.51,21.69 -15.19,0 -27.51,-9.71 -27.51,-21.69 v -36.15 z"
               inkscape:connector-curvature="0"
               style="fill:#eceff0" />
            <path
               id="path356"
               d="m 421.08,209.26 v 36.15 c 0,11.98 -12.32,21.69 -27.51,21.69 -15.2,0 -27.52,-9.71 -27.52,-21.69 v -36.15 z"
               inkscape:connector-curvature="0"
               style="fill:#c9314b" />
            <path
               id="path358"
               d="M 426.48,258.31 V 379.46 H 85.52 V 258.31 c 3.39,-3.61 5.4,-8.07 5.4,-12.9 0,11.98 12.32,21.69 27.51,21.69 15.2,0 27.52,-9.71 27.52,-21.69 0,11.98 12.32,21.69 27.51,21.69 15.2,0 27.51,-9.71 27.51,-21.69 0,11.98 12.32,21.69 27.52,21.69 15.19,0 27.51,-9.71 27.51,-21.69 0,11.98 12.32,21.69 27.51,21.69 15.2,0 27.52,-9.71 27.52,-21.69 0,8.94 6.86,16.61 16.65,19.94 3.33,1.12 7,1.75 10.86,1.75 15.2,0 27.51,-9.71 27.51,-21.69 0,11.98 12.32,21.69 27.52,21.69 15.19,0 27.51,-9.71 27.51,-21.69 0,4.83 2,9.29 5.4,12.9 z"
               inkscape:connector-curvature="0"
               style="fill:#007eca" />
            <path
               id="path360"
               d="m 426.48,258.31 v 12.9 c -3.4,-3.61 -5.4,-8.07 -5.4,-12.9 0,11.98 -12.32,21.69 -27.51,21.69 -15.2,0 -27.52,-9.71 -27.52,-21.69 0,11.98 -12.31,21.69 -27.51,21.69 -3.86,0 -7.53,-0.63 -10.86,-1.75 -9.79,-3.33 -16.65,-11 -16.65,-19.94 0,11.98 -12.32,21.69 -27.52,21.69 -15.19,0 -27.51,-9.71 -27.51,-21.69 0,11.98 -12.32,21.69 -27.51,21.69 -15.2,0 -27.52,-9.71 -27.52,-21.69 0,11.98 -12.31,21.69 -27.51,21.69 -15.19,0 -27.51,-9.71 -27.51,-21.69 0,11.98 -12.32,21.69 -27.52,21.69 -15.19,0 -27.51,-9.71 -27.51,-21.69 0,4.83 -2.01,9.29 -5.4,12.9 v -12.9 c 3.39,-3.61 5.4,-8.07 5.4,-12.9 0,11.98 12.32,21.69 27.51,21.69 15.2,0 27.52,-9.71 27.52,-21.69 0,11.98 12.32,21.69 27.51,21.69 15.2,0 27.51,-9.71 27.51,-21.69 0,11.98 12.32,21.69 27.52,21.69 15.19,0 27.51,-9.71 27.51,-21.69 0,11.98 12.32,21.69 27.51,21.69 15.2,0 27.52,-9.71 27.52,-21.69 0,8.94 6.86,16.61 16.65,19.94 3.33,1.12 7,1.75 10.86,1.75 15.2,0 27.51,-9.71 27.51,-21.69 0,11.98 12.32,21.69 27.52,21.69 15.19,0 27.51,-9.71 27.51,-21.69 0,4.83 2,9.29 5.4,12.9 z"
               inkscape:connector-curvature="0"
               style="opacity:0.2;fill:#303c44" />
            <path
               id="path362"
               d="M 457.21,266 V 409.22 H 436.69 312.56 l -18.09,18.09 H 217.53 L 199.44,409.22 H 199.43 75.31 54.79 V 266 c 2.71,0.72 5.61,1.1 8.62,1.1 1.74,0 3.44,-0.13 5.09,-0.38 6.95,-1.02 12.97,-4.11 17.02,-8.41 V 379.46 H 426.48 V 258.31 c 5,5.33 13.05,8.79 22.11,8.79 3.01,0 5.91,-0.38 8.62,-1.1 z"
               inkscape:connector-curvature="0"
               style="fill:#303c44" />
            <polygon
               id="polygon364"
               points="54.79,409.22 54.79,402.55 199.44,402.55 217.53,420.64 294.47,420.64 312.56,402.55 457.21,402.55 457.21,409.22 312.56,409.22 294.47,427.31 217.53,427.31 199.44,409.22 "
               style="opacity:0.2" />
          </g>
          <g
             id="g432">
            <path
               id="path368"
               d="M 54.79,409.22 H 40.55 c -7.26,0 -13.14,5.89 -13.14,13.15 v 9.89 c 0,7.27 5.88,13.15 13.14,13.15 h 430.89 c 7.27,0 13.15,-5.89 13.15,-13.15 v -9.89 c 0,-7.27 -5.89,-13.15 -13.15,-13.15 h -14.23"
               inkscape:connector-curvature="0"
               style="fill:none" />
            <line
               id="line370"
               y2="409.22"
               y1="427.31"
               x2="199.44"
               x1="217.53"
               style="fill:none" />
            <line
               id="line372"
               y2="427.31"
               y1="409.22"
               x2="294.47"
               x1="312.56"
               style="fill:none" />
            <polyline
               id="polyline374"
               points="427.42,123.2 379.84,123.2 332.5,123.2 179.5,123.2 117.25,123.2 84.57,123.2     "
               style="fill:none" />
            <polyline
               id="polyline376"
               points="199.43,409.22 75.31,409.22 54.79,409.22 54.79,266     "
               style="fill:none" />
            <line
               id="line378"
               y2="152.99001"
               y1="185.60001"
               x2="54.790001"
               x1="54.790001"
               style="fill:none" />
            <line
               id="line380"
               y2="152.99001"
               y1="185.60001"
               x2="457.20999"
               x1="457.20999"
               style="fill:none" />
            <polyline
               id="polyline382"
               points="457.21,266 457.21,409.22 436.69,409.22 312.56,409.22     "
               style="fill:none" />
            <path
               id="path384"
               d="m 54.79,152.99 v -0.01 C 54.8,136.53 68.13,123.2 84.57,123.2"
               inkscape:connector-curvature="0"
               style="fill:none" />
            <path
               id="path386"
               d="m 427.42,123.2 c 16.45,0 29.78,13.33 29.79,29.78 v 0.01"
               inkscape:connector-curvature="0"
               style="fill:none" />
            <polyline
               id="polyline388"
               points="426.48,209.26 421.08,209.26 366.05,209.26 311.03,209.26 256,209.26 200.97,209.26       145.95,209.26 90.92,209.26 85.52,209.26     "
               style="fill:none" />
            <polyline
               id="polyline390"
               points="426.48,258.31 426.48,379.46 85.52,379.46 85.52,258.31     "
               style="fill:none" />
            <line
               id="line392"
               y2="427.31"
               y1="427.31"
               x2="294.47"
               x1="217.53"
               style="fill:none" />
            <polyline
               id="polyline394"
               points="85.52,209.26 35.89,209.26 54.79,185.6 99.38,123.46 179.5,123.46 332.5,123.46 407,123.46       457.21,185.6 476.11,209.26 457.21,209.26 426.48,209.26     "
               style="fill:none" />
            <line
               id="line396"
               y2="245.41"
               y1="209.25999"
               x2="35.889999"
               x1="35.889999"
               style="fill:none" />
            <path
               id="path398"
               d="m 35.89,245.41 c 0,9.61 7.93,17.75 18.9,20.59 2.71,0.72 5.61,1.1 8.62,1.1 1.74,0 3.44,-0.13 5.09,-0.38 6.95,-1.02 12.97,-4.11 17.02,-8.41 3.39,-3.61 5.4,-8.07 5.4,-12.9"
               inkscape:connector-curvature="0"
               style="fill:none" />
            <polyline
               id="polyline400"
               points="90.92,245.41 90.92,216.49 90.92,209.26     "
               style="fill:none" />
            <path
               id="path402"
               d="m 145.95,245.41 c 0,11.98 -12.32,21.69 -27.52,21.69 -15.19,0 -27.51,-9.71 -27.51,-21.69"
               inkscape:connector-curvature="0"
               style="fill:none" />
            <line
               id="line404"
               y2="245.41"
               y1="209.25999"
               x2="145.95"
               x1="145.95"
               style="fill:none" />
            <path
               id="path406"
               d="m 200.97,245.41 c 0,11.98 -12.31,21.69 -27.51,21.69 -15.19,0 -27.51,-9.71 -27.51,-21.69"
               inkscape:connector-curvature="0"
               style="fill:none" />
            <line
               id="line408"
               y2="245.41"
               y1="209.25999"
               x2="200.97"
               x1="200.97"
               style="fill:none" />
            <path
               id="path410"
               d="m 256,245.41 c 0,11.98 -12.32,21.69 -27.51,21.69 -15.2,0 -27.52,-9.71 -27.52,-21.69"
               inkscape:connector-curvature="0"
               style="fill:none" />
            <line
               id="line412"
               y2="245.41"
               y1="209.25999"
               x2="256"
               x1="256"
               style="fill:none" />
            <path
               id="path414"
               d="m 311.03,245.41 c 0,11.98 -12.32,21.69 -27.52,21.69 -15.19,0 -27.51,-9.71 -27.51,-21.69"
               inkscape:connector-curvature="0"
               style="fill:none" />
            <line
               id="line416"
               y2="245.41"
               y1="209.25999"
               x2="311.03"
               x1="311.03"
               style="fill:none" />
            <path
               id="path418"
               d="m 366.05,245.41 c 0,11.98 -12.31,21.69 -27.51,21.69 -15.19,0 -27.51,-9.71 -27.51,-21.69"
               inkscape:connector-curvature="0"
               style="fill:none" />
            <line
               id="line420"
               y2="245.41"
               y1="209.25999"
               x2="366.04999"
               x1="366.04999"
               style="fill:none" />
            <path
               id="path422"
               d="m 421.08,245.41 c 0,11.98 -12.32,21.69 -27.51,21.69 -15.2,0 -27.52,-9.71 -27.52,-21.69"
               inkscape:connector-curvature="0"
               style="fill:none" />
            <line
               id="line424"
               y2="245.41"
               y1="209.25999"
               x2="421.07999"
               x1="421.07999"
               style="fill:none" />
            <path
               id="path426"
               d="m 476.11,245.41 c 0,9.61 -7.92,17.75 -18.9,20.59 -2.71,0.72 -5.61,1.1 -8.62,1.1 -9.06,0 -17.11,-3.46 -22.11,-8.79 -3.4,-3.61 -5.4,-8.07 -5.4,-12.9"
               inkscape:connector-curvature="0"
               style="fill:none" />
            <line
               id="line428"
               y2="209.25999"
               y1="245.41"
               x2="476.10999"
               x1="476.10999"
               style="fill:none" />
            <path
               id="path430"
               d="M 332.5,123.46 V 123.2 78.59 c 0,-6.62 -5.37,-12 -12,-12 h -129 c -6.63,0 -12,5.38 -12,12 v 44.61 0.26"
               inkscape:connector-curvature="0"
               style="fill:none" />
          </g>
        </g>
      </g>
      <rect
         id="rect437"
         y="372"
         x="85.519997"
         width="340.95999"
         height="7.46"
         style="opacity:0.2" />
      <linearGradient
         y2="424.54449"
         y1="296.1803"
         x2="348.39139"
         x1="274.2803"
         id="SVGID_1_"
         gradientUnits="userSpaceOnUse">
        <stop
           id="stop439"
           style="stop-color:#000000"
           offset="0" />
        <stop
           id="stop441"
           style="stop-color:#FFFFFF;stop-opacity:0"
           offset="1" />
      </linearGradient>
      <path
         id="path444"
         d="M 426.48,258.31 V 379.46 H 146.25 L 327.68,265.35 c 3.33,1.12 7,1.75 10.86,1.75 15.2,0 27.51,-9.71 27.51,-21.69 0,11.98 12.32,21.69 27.52,21.69 15.19,0 27.51,-9.71 27.51,-21.69 0,4.83 2,9.29 5.4,12.9 z"
         inkscape:connector-curvature="0"
         style="opacity:0.2;fill:url(#SVGID_1_)" />
      <linearGradient
         y2="133.78439"
         y1="58.201401"
         x2="314.16739"
         x1="270.52951"
         id="SVGID_2_"
         gradientUnits="userSpaceOnUse">
        <stop
           id="stop446"
           style="stop-color:#000000"
           offset="0" />
        <stop
           id="stop448"
           style="stop-color:#FFFFFF;stop-opacity:0"
           offset="1" />
      </linearGradient>
      <path
         id="path451"
         d="M 332.5,78.59 V 123.2 H 256 V 66.59 h 64.5 c 6.63,0 12,5.38 12,12 z"
         inkscape:connector-curvature="0"
         style="opacity:0.2;fill:url(#SVGID_2_)" />
      <linearGradient
         y2="257.8038"
         y1="210.53391"
         x2="88.494797"
         x1="61.203499"
         id="SVGID_3_"
         gradientUnits="userSpaceOnUse">
        <stop
           id="stop453"
           style="stop-color:#000000"
           offset="0" />
        <stop
           id="stop455"
           style="stop-color:#FFFFFF;stop-opacity:0"
           offset="1" />
      </linearGradient>
      <path
         id="path458"
         d="m 90.92,209.26 v 36.15 c 0,4.83 -2.01,9.29 -5.4,12.9 -4.05,4.3 -10.07,7.39 -17.02,8.41 -1.65,0.25 -3.35,0.38 -5.09,0.38 v -57.84 z"
         inkscape:connector-curvature="0"
         style="opacity:0.2;fill:url(#SVGID_3_)" />
      <linearGradient
         y2="257.8038"
         y1="210.53391"
         x2="143.51981"
         x1="116.2285"
         id="SVGID_4_"
         gradientUnits="userSpaceOnUse">
        <stop
           id="stop460"
           style="stop-color:#000000"
           offset="0" />
        <stop
           id="stop462"
           style="stop-color:#FFFFFF;stop-opacity:0"
           offset="1" />
      </linearGradient>
      <path
         id="path465"
         d="m 145.945,209.26 v 36.15 c 0,4.83 -2.01,9.29 -5.4,12.9 -4.05,4.3 -10.07,7.39 -17.02,8.41 -1.65,0.25 -3.35,0.38 -5.09,0.38 v -57.84 z"
         inkscape:connector-curvature="0"
         style="opacity:0.2;fill:url(#SVGID_4_)" />
      <linearGradient
         y2="257.8038"
         y1="210.53391"
         x2="198.5448"
         x1="171.2536"
         id="SVGID_5_"
         gradientUnits="userSpaceOnUse">
        <stop
           id="stop467"
           style="stop-color:#000000"
           offset="0" />
        <stop
           id="stop469"
           style="stop-color:#FFFFFF;stop-opacity:0"
           offset="1" />
      </linearGradient>
      <path
         id="path472"
         d="m 200.97,209.26 v 36.15 c 0,4.83 -2.01,9.29 -5.4,12.9 -4.05,4.3 -10.07,7.39 -17.02,8.41 -1.65,0.25 -3.35,0.38 -5.09,0.38 v -57.84 z"
         inkscape:connector-curvature="0"
         style="opacity:0.2;fill:url(#SVGID_5_)" />
      <linearGradient
         y2="257.8038"
         y1="210.53391"
         x2="253.56979"
         x1="226.27859"
         id="SVGID_6_"
         gradientUnits="userSpaceOnUse">
        <stop
           id="stop474"
           style="stop-color:#000000"
           offset="0" />
        <stop
           id="stop476"
           style="stop-color:#FFFFFF;stop-opacity:0"
           offset="1" />
      </linearGradient>
      <path
         id="path479"
         d="m 255.995,209.26 v 36.15 c 0,4.83 -2.01,9.29 -5.4,12.9 -4.05,4.3 -10.07,7.39 -17.02,8.41 -1.65,0.25 -3.35,0.38 -5.09,0.38 v -57.84 z"
         inkscape:connector-curvature="0"
         style="opacity:0.2;fill:url(#SVGID_6_)" />
      <linearGradient
         y2="257.8038"
         y1="210.53391"
         x2="308.59491"
         x1="281.30359"
         id="SVGID_7_"
         gradientUnits="userSpaceOnUse">
        <stop
           id="stop481"
           style="stop-color:#000000"
           offset="0" />
        <stop
           id="stop483"
           style="stop-color:#FFFFFF;stop-opacity:0"
           offset="1" />
      </linearGradient>
      <path
         id="path486"
         d="m 311.02,209.26 v 36.15 c 0,4.83 -2.01,9.29 -5.4,12.9 -4.05,4.3 -10.07,7.39 -17.02,8.41 -1.65,0.25 -3.35,0.38 -5.09,0.38 v -57.84 z"
         inkscape:connector-curvature="0"
         style="opacity:0.2;fill:url(#SVGID_7_)" />
      <linearGradient
         y2="257.8038"
         y1="210.53391"
         x2="363.6199"
         x1="336.32861"
         id="SVGID_8_"
         gradientUnits="userSpaceOnUse">
        <stop
           id="stop488"
           style="stop-color:#000000"
           offset="0" />
        <stop
           id="stop490"
           style="stop-color:#FFFFFF;stop-opacity:0"
           offset="1" />
      </linearGradient>
      <path
         id="path493"
         d="m 366.045,209.26 v 36.15 c 0,4.83 -2.01,9.29 -5.4,12.9 -4.05,4.3 -10.07,7.39 -17.02,8.41 -1.65,0.25 -3.35,0.38 -5.09,0.38 v -57.84 z"
         inkscape:connector-curvature="0"
         style="opacity:0.2;fill:url(#SVGID_8_)" />
      <linearGradient
         y2="257.8038"
         y1="210.53391"
         x2="418.6449"
         x1="391.3537"
         id="SVGID_9_"
         gradientUnits="userSpaceOnUse">
        <stop
           id="stop495"
           style="stop-color:#000000"
           offset="0" />
        <stop
           id="stop497"
           style="stop-color:#FFFFFF;stop-opacity:0"
           offset="1" />
      </linearGradient>
      <path
         id="path500"
         d="m 421.07,209.26 v 36.15 c 0,4.83 -2.01,9.29 -5.4,12.9 -4.05,4.3 -10.07,7.39 -17.02,8.41 -1.65,0.25 -3.35,0.38 -5.09,0.38 v -57.84 z"
         inkscape:connector-curvature="0"
         style="opacity:0.2;fill:url(#SVGID_9_)" />
      <linearGradient
         y2="257.8038"
         y1="210.53391"
         x2="473.67001"
         x1="446.37869"
         id="SVGID_10_"
         gradientUnits="userSpaceOnUse">
        <stop
           id="stop502"
           style="stop-color:#000000"
           offset="0" />
        <stop
           id="stop504"
           style="stop-color:#FFFFFF;stop-opacity:0"
           offset="1" />
      </linearGradient>
      <path
         id="path507"
         d="m 476.095,209.26 v 36.15 c 0,4.83 -2.01,9.29 -5.4,12.9 -4.05,4.3 -10.07,7.39 -17.02,8.41 -1.65,0.25 -3.35,0.38 -5.09,0.38 v -57.84 z"
         inkscape:connector-curvature="0"
         style="opacity:0.2;fill:url(#SVGID_10_)" />
    </g>
  </g>
</svg>
